# AST/ASF file generated using VICON BodyLanguage
# -----------------------------------------------
:version 1.10
:name VICON
:units
  mass 1.0
  length 0.45
  angle deg
:documentation
   .ast/.asf automatically generated from VICON data using
   VICON BodyBuilder and BodyLanguage model FoxedUp or BRILLIANT.MOD
:root
   order TX TY TZ RX RY RZ
   axis XYZ
   position 0 0 0  
   orientation 0 0 0 
:bonedata
  begin
     id 1 
     name lhipjoint
     direction 0.521689 -0.742065 0.420928 
     length 2.47002 
     axis 0 0 0  XYZ
  end
  begin
     id 2 
     name lfemur
     direction 0.34202 -0.939693 0  
     length 7.24654  
     axis 0 0 20  XYZ
    dof rx ry rz
    limits (-160.0 20.0)
           (-70.0 70.0)
           (-60.0 70.0)
  end
  begin
     id 3 
     name ltibia
     direction 0.34202 -0.939693 0   
     length 8.04849   
     axis 0 0 20   XYZ
    dof rx
    limits (-10.0 170.0)
  end
  begin
     id 4 
     name lfoot
     direction 0.0745411 -0.2048 0.975961   
     length 1.72367   
     axis -90 7.62852e-016 20   XYZ
    dof rx rz
    limits (-45.0 90.0)
           (-70.0 20.0)
  end
  begin
     id 5 
     name ltoes
     direction 1.53556e-011 -4.21901e-011 1   
     length 0.87311   
     axis -90 7.62852e-016 20   XYZ
    dof rx
    limits (-90.0 20.0)
  end
  begin
     id 6 
     name rhipjoint
     direction -0.52849 -0.738415 0.418857   
     length 2.48223  
     axis 0 0 0  XYZ 
  end
  begin
     id 7 
     name rfemur
     direction -0.34202 -0.939693 0   
     length 7.15571   
     axis 0 0 -20   XYZ
    dof rx ry rz
    limits (-160.0 20.0)
           (-70.0 70.0)
           (-70.0 60.0)
  end
  begin
     id 8 
     name rtibia
     direction -0.34202 -0.939693 0   
     length 7.81659   
     axis 0 0 -20   XYZ
    dof rx
    limits (-10.0 170.0)
 end
 begin
     id 9 
     name rfoot
     direction -0.0917348 -0.252039 0.963359   
     length 1.84382  
     axis -90 -7.62852e-016 -20   XYZ
    dof rx rz
    limits (-45.0 90.0)
           (-20.0 70.0)
  end
  begin
     id 10 
     name rtoes
     direction -1.53551e-011 -4.21879e-011 1   
     length 0.927771   
     axis -90 -7.62852e-016 -20   XYZ
    dof rx
    limits (-90.0 20.0)
  end
  begin
     id 11 
     name lowerback
     direction 0.00583058 0.999822 0.0179296   
     length 2.1429   
     axis 0 0 0   XYZ
    dof rx ry rz
    limits (-20.0 45.0)
           (-30.0 30.0)
           (-30.0 30.0)
  end
  begin
     id 12 
     name upperback
     direction -0.0137999 0.999752 -0.0175071   
     length 2.14252   
     axis 0 0 0   XYZ
    dof rx ry rz
    limits (-20.0 45.0)
           (-30.0 30.0)
           (-30.0 30.0)
  end
  begin
     id 13 
     name thorax
     direction -0.0158036 0.99955 -0.0254909   
     length 2.1383   
     axis 0 0 0   XYZ
    dof rx ry rz
    limits (-20.0 45.0)
           (-30.0 30.0)
           (-30.0 30.0)
  end
  begin
     id 14 
     name lowerneck
     direction -0.0101179 0.999403 -0.0330262   
     length 1.65808   
     axis 0 0 0   XYZ
    dof rx ry rz
    limits (-20.0 45.0)
           (-30.0 30.0)
           (-30.0 30.0)
  end
  begin
     id 15 
     name upperneck
     direction 0.0497734 0.995978 -0.074501   
     length 1.5897   
     axis 0 0 0   XYZ
    dof rx ry rz
    limits (-20.0 45.0)
           (-30.0 30.0)
           (-30.0 30.0)
  end
  begin
     id 16
     name head
     direction 0.0189524 0.999519 -0.0245438  
     length 1.74024  
     axis 0 0 0   XYZ
    dof rx ry rz
    limits (-20.0 45.0)
           (-30.0 30.0)
           (-30.0 30.0)
  end
  begin
     id 17 
     name lclavicle
     direction 0.945604 0.324422 0.0241537  
     length 3.59089  
     axis 0 0 0   XYZ
    dof ry rz
    limits (-20.0 10.0)
           (0.0 20.0)
  end
  begin
     id 18 
     name lhumerus
     direction 1 -4.48964e-011 -2.63524e-027   
     length 5.2391   
     axis 180 -30 -90   XYZ
    dof rx ry rz
    limits (-60.0 90.0)
           (-90.0 90.0)
           (-90.0 90.0)
  end
  begin
     id 19
     name lradius
     direction 1 -4.48969e-011 3.86978e-028   
     length 3.31467   
     axis 180 -30 -90   XYZ
    dof rx
    limits (-10.0 170.0)
  end
  begin
     id 20
     name lwrist
     direction 1 -4.48963e-011 7.20928e-028   
     length 1.65734   
     axis -5.52449e-016 90 90   XYZ
    dof ry
    limits (-180.0 0.0)
 end
  begin
     id 21 
     name lhand
     direction 1 -4.48964e-011 1.44186e-027   
     length 0.9659   
     axis -9.20027e-016 90 90   XYZ
    dof rx rz
    limits (-90.0 90.0)
           (-45.0 45.0)
  end
  begin
     id 22 
     name lfingers
     direction 1 -4.48965e-011 2.88371e-027   
     length 0.778733   
     axis -1.84005e-015 90 90   XYZ
    dof rx
    limits (0.0 90.0)
  end
  begin
     id 23
     name lthumb
     direction 0.707107 -6.34931e-011 0.707107   
     length 1.11811   
     axis -90 45 2.85299e-015   XYZ
    dof rx rz
    limits (-45.0 45.0)
           (-45.0 45.0)
  end
  begin
     id 24 
     name rclavicle
     direction -0.923762 0.370785 0.0958234   
     length 3.54196  
     axis 0 0 0   XYZ 
    dof ry rz
    limits (-10.0 20.0)
           (-20.0 0.0)
  end
  begin
     id 25 
     name rhumerus
     direction -1 -4.48966e-011 1.18702e-017  
     length 5.30252   
     axis 180 30 90   XYZ
    dof rx ry rz
    limits (-90.0 60.0)
           (-90.0 90.0)
           (-90.0 90.0)
  end
  begin
     id 26 
     name rradius
     direction -1 -4.48966e-011 4.46736e-027   
     length 3.67875   
     axis 180 30 90   XYZ
    dof rx
    limits (-10.0 170.0)
  end
  begin
     id 27 
     name rwrist
     direction -1 -4.48966e-011 7.20928e-028   
     length 1.83937   
     axis -5.52449e-016 -90 -90   XYZ
    dof ry
    limits (-180.0 0.0)
  end
  begin
     id 28
     name rhand
     direction -1 -4.48973e-011 1.44186e-027   
     length 0.594811   
     axis -9.20027e-016 -90 -90   XYZ
    dof rx rz
    limits (-90.0 90.0)
           (-45.0 45.0)
  end
  begin
     id 29
     name rfingers
     direction -1 -4.48963e-011 2.88371e-027   
     length 0.479552   
     axis -1.84005e-015 -90 -90   XYZ
    dof rx
    limits (0.0 90.0)
  end
  begin
     id 30
     name rthumb
     direction -0.707107 -6.34932e-011 0.707107   
     length 0.688544   
     axis -90 -45 -2.85299e-015   XYZ
    dof rx rz
    limits (-45.0 45.0)
           (-45.0 45.0)
  end
:hierarchy
  begin
    root lhipjoint rhipjoint lowerback
    lhipjoint lfemur
    lfemur ltibia
    ltibia lfoot
    lfoot ltoes
    rhipjoint rfemur
    rfemur rtibia
    rtibia rfoot
    rfoot rtoes
    lowerback upperback
    upperback thorax
    thorax lowerneck lclavicle rclavicle
    lowerneck upperneck
    upperneck head
    lclavicle lhumerus
    lhumerus lradius
    lradius lwrist
    lwrist lhand lthumb
    lhand lfingers
    rclavicle rhumerus
    rhumerus rradius
    rradius rwrist
    rwrist rhand rthumb
    rhand rfingers
  end

#!OML:ASF E:\acrobat2\Project_11_07_03\Capture day 1\Session 1\Acrobat.ASF
:FULLY-SPECIFIED
:DEGREES
691
root 11.4301 18.4638 26.4117 386.795 -78.1697 -21.4496
lowerback -4.89955 0.180151 4.84511
upperback -3.18342 -0.00259061 -1.02397
thorax -0.53637 -0.104655 -3.77663
lowerneck -0.980744 -2.47981 -1.3183
upperneck 1.5178 -3.39456 4.78216
head 0.746497 -1.67554 1.6733
rclavicle 5.54112e-015 -3.97569e-015
rhumerus -19.9909 -41.6862 0.431946
rradius 21.2703
rwrist 9.22627
rhand -17.9075 -52.0879
rfingers 7.12502
rthumb 8.3596 278.098
lclavicle 5.54112e-015 -3.97569e-015
lhumerus 4.96658 17.2341 6.60752
lradius 20.9888
lwrist 5.54962
lhand -13.7877 -5.72847
lfingers 7.12502
lthumb 12.3338 23.8877
rfemur 12.8736 22.0364 7.19153
rtibia -5.27741
rfoot -42.9409 -29.3569
rtoes 55.6908
lfemur 7.77486 -12.7163 -6.54273
ltibia -4.62925
lfoot -196.714 179.305
ltoes 41.1964
692
root 11.4159 18.4639 26.4016 387.18 -78.2576 -21.9008
lowerback -4.90004 0.191915 5.21492
upperback -3.16275 -0.00123284 -1.15247
thorax -0.517088 -0.109386 -4.11899
lowerneck -0.880095 -2.50199 -1.1974
upperneck 1.42083 -3.42178 4.73773
head 0.696568 -1.69145 1.63916
rclavicle 1.36416e-014 1.59028e-015
rhumerus -19.8359 -41.5095 0.0678358
rradius 21.3002
rwrist 9.02924
rhand -17.8901 -52.0949
rfingers 7.12502
rthumb 8.37636 278.091
lclavicle 1.36416e-014 1.59028e-015
lhumerus 4.93761 17.2529 6.38096
lradius 20.9944
lwrist 5.50096
lhand -13.8985 -5.73401
lfingers 7.12502
lthumb 12.227 23.8886
rfemur 12.9538 21.9928 7.33867
rtibia -5.20501
rfoot -43.0434 -29.0212
rtoes 55.6479
lfemur 7.91608 -12.7354 -6.47395
ltibia -4.62965
lfoot -196.704 179.213
ltoes 42.1538
693
root 11.4018 18.4615 26.3884 387.032 -78.4522 -21.7299
lowerback -4.90012 0.19352 4.96517
upperback -3.2338 0.00997575 -1.06305
thorax -0.587607 -0.10358 -3.8844
lowerneck -0.701785 -2.46561 -1.27635
upperneck 1.42038 -3.37219 4.7507
head 0.666483 -1.66923 1.65977
rclavicle 4.96962e-017 9.54166e-015
rhumerus -19.5603 -40.85 -0.0575027
rradius 21.4405
rwrist 8.5904
rhand -17.63 -52.3218
rfingers 7.12502
rthumb 8.6274 277.874
lclavicle 4.96962e-017 9.54166e-015
lhumerus 4.74563 17.0274 6.34685
lradius 20.984
lwrist 5.637
lhand -14.0359 -5.66941
lfingers 7.12502
lthumb 12.0945 23.961
rfemur 12.9557 21.9307 7.2904
rtibia -5.1743
rfoot -42.4025 -29.401
rtoes 55.0412
lfemur 7.937 -12.4173 -6.50619
ltibia -4.55961
lfoot -196.479 179.249
ltoes 41.8868
694
root 11.3867 18.4599 26.3749 387.775 -78.5997 -22.4074
lowerback -5.03065 0.235012 4.81472
upperback -3.27067 0.0632357 -0.885651
thorax -0.546421 -0.0734617 -3.61328
lowerneck -0.68009 -2.43611 -1.45253
upperneck 1.50355 -3.33496 4.82191
head 0.69258 -1.65029 1.7138
rclavicle 1.56791e-014 1.11319e-014
rhumerus -19.3377 -40.7366 -0.000271236
rradius 21.4191
rwrist 8.73199
rhand -17.2419 -52.1051
rfingers 7.12502
rthumb 9.00193 278.107
lclavicle 1.56791e-014 1.11319e-014
lhumerus 4.66502 17.1766 6.49298
lradius 20.9246
lwrist 5.52244
lhand -13.8621 -5.65352
lfingers 7.12502
lthumb 12.262 23.967
rfemur 12.9389 22.2016 7.52502
rtibia -5.19581
rfoot -43.0935 -28.6731
rtoes 55.49
lfemur 7.98333 -12.6857 -6.44509
ltibia -4.55483
lfoot -196.973 179.821
ltoes 40.0798
695
root 11.3717 18.4601 26.3608 388.077 -78.7176 -22.6951
lowerback -5.18716 0.286374 4.67561
upperback -3.22166 0.128602 -0.772594
thorax -0.401696 -0.03295 -3.4148
lowerneck -0.75792 -2.43699 -1.52465
upperneck 1.5622 -3.33502 4.76196
head 0.724213 -1.64901 1.70609
rclavicle 8.94531e-015 -1.43125e-014
rhumerus -19.1569 -41.3928 0.163322
rradius 21.2121
rwrist 9.38362
rhand -17.2171 -51.7579
rfingers 7.12502
rthumb 9.02585 278.455
lclavicle 8.94531e-015 -1.43125e-014
lhumerus 4.81962 17.6981 6.74731
lradius 20.7559
lwrist 5.16013
lhand -13.4791 -5.69196
lfingers 7.12502
lthumb 12.6314 23.9061
rfemur 13.0199 22.4437 7.72489
rtibia -5.24385
rfoot -42.8455 -29.1377
rtoes 54.8388
lfemur 8.09313 -13.0689 -6.48706
ltibia -4.56876
lfoot -197.457 180.011
ltoes 39.865
696
root 11.3563 18.4574 26.3473 387.137 -78.9187 -21.7806
lowerback -5.29945 0.272584 4.12918
upperback -3.14989 0.127618 -0.603331
thorax -0.263779 -0.0195913 -2.93204
lowerneck -0.759965 -2.40837 -1.61047
upperneck 1.50528 -3.28659 4.55003
head 0.702235 -1.62627 1.65386
rclavicle -2.25621e-014 -1.03368e-014
rhumerus -18.6816 -42.2099 0.252834
rradius 21.043
rwrist 9.95459
rhand -17.3962 -51.7075
rfingers 7.12502
rthumb 8.85304 278.498
lclavicle -2.25621e-014 -1.03368e-014
lhumerus 4.85464 18.3831 7.12352
lradius 20.5729
lwrist 4.66683
lhand -13.352 -5.64385
lfingers 7.12502
lthumb 12.7539 23.9466
rfemur 13.122 22.0894 7.47091
rtibia -5.31694
rfoot -41.5032 -30.1296
rtoes 53.6597
lfemur 8.23786 -13.195 -6.81006
ltibia -4.57783
lfoot -197.669 179.931
ltoes 40.4256
697
root 11.3372 18.4508 26.3358 387.352 -79.1845 -21.9429
lowerback -5.46292 0.322637 3.98196
upperback -3.16357 0.192316 -0.569205
thorax -0.181559 0.015856 -2.81055
lowerneck -0.651682 -2.43837 -1.49864
upperneck 1.38235 -3.3214 4.42785
head 0.641879 -1.64622 1.59656
rclavicle 2.31833e-014 6.75868e-015
rhumerus -18.3953 -42.9648 0.173038
rradius 20.9724
rwrist 10.6514
rhand -17.3848 -51.804
rfingers 7.12502
rthumb 8.86402 278.402
lclavicle 2.31833e-014 6.75868e-015
lhumerus 4.79214 18.413 7.13222
lradius 20.6639
lwrist 4.78833
lhand -13.4422 -5.4674
lfingers 7.12502
lthumb 12.6669 24.1285
rfemur 13.0206 21.5366 7.27445
rtibia -5.32203
rfoot -40.2431 -30.4426
rtoes 53.0346
lfemur 8.35123 -13.0846 -6.90442
ltibia -4.60132
lfoot -197.789 179.777
ltoes 41.104
698
root 11.3229 18.4503 26.3254 387.495 -79.2759 -22.0563
lowerback -5.49222 0.372664 4.20214
upperback -3.22198 0.24766 -0.728051
thorax -0.220837 0.0368605 -3.09571
lowerneck -0.564521 -2.50323 -1.44762
upperneck 1.39292 -3.41705 4.69199
head 0.638287 -1.69432 1.67222
rclavicle 4.96962e-016 -3.97569e-015
rhumerus -18.4978 -42.888 0.00156252
rradius 21.0531
rwrist 10.7186
rhand -17.4203 -52.2007
rfingers 7.12502
rthumb 8.8298 278.004
lclavicle 4.96962e-016 -3.97569e-015
lhumerus 4.81754 17.7339 6.79131
lradius 20.8658
lwrist 5.4718
lhand -13.4056 -5.29526
lfingers 7.12502
lthumb 12.7022 24.2984
rfemur 13.0452 21.36 7.32461
rtibia -5.32379
rfoot -40.4218 -29.8777
rtoes 53.2869
lfemur 8.36788 -12.852 -6.8548
ltibia -4.54542
lfoot -197.65 179.482
ltoes 41.8933
699
root 11.3098 18.4488 26.3141 386.847 -79.3153 -21.4015
lowerback -5.53928 0.36733 4.16371
upperback -3.23388 0.240161 -0.798902
thorax -0.207413 0.0328751 -3.14765
lowerneck -0.624937 -2.46146 -1.75196
upperneck 1.63874 -3.38127 5.21915
head 0.742014 -1.67262 1.8944
rclavicle -1.53313e-014 3.57812e-014
rhumerus -18.4205 -42.0511 -0.256693
rradius 21.1484
rwrist 9.94927
rhand -17.6156 -52.4203
rfingers 7.12502
rthumb 8.64128 277.777
lclavicle -1.53313e-014 3.57812e-014
lhumerus 4.86694 17.3642 6.63002
lradius 20.917
lwrist 5.87596
lhand -13.3454 -5.21761
lfingers 7.12502
lthumb 12.7603 24.3725
rfemur 13.2277 21.4759 7.39538
rtibia -5.40345
rfoot -40.9637 -29.5263
rtoes 53.3133
lfemur 8.3834 -12.8014 -6.94809
ltibia -4.55439
lfoot -197.665 179.664
ltoes 41.6085
700
root 11.2915 18.4415 26.302 386.88 -79.4585 -21.3965
lowerback -5.71112 0.37855 4.04672
upperback -3.24273 0.251795 -0.775997
thorax -0.120016 0.0415644 -3.05718
lowerneck -0.68586 -2.4156 -1.90096
upperneck 1.87002 -3.33402 5.43009
head 0.830944 -1.64549 1.98854
rclavicle 6.80837e-015 -3.97569e-015
rhumerus -18.2377 -43.6107 -0.108931
rradius 20.8953
rwrist 11.5914
rhand -17.4366 -51.7944
rfingers 7.12502
rthumb 8.81401 278.41
lclavicle 6.80837e-015 -3.97569e-015
lhumerus 4.77963 17.2462 6.55991
lradius 21.0337
lwrist 6.16891
lhand -13.406 -5.14402
lfingers 7.12502
lthumb 12.7018 24.4497
rfemur 13.3221 21.5386 7.50537
rtibia -5.46362
rfoot -40.8208 -29.6533
rtoes 52.7012
lfemur 8.47344 -12.9139 -7.02697
ltibia -4.63319
lfoot -197.982 179.835
ltoes 42.0029
701
root 11.2749 18.4363 26.291 387.15 -79.5622 -21.6547
lowerback -5.82076 0.39396 4.04137
upperback -3.26008 0.266866 -0.766217
thorax -0.0757551 0.0493757 -3.04305
lowerneck -0.628766 -2.47591 -1.79783
upperneck 1.88161 -3.41364 5.30267
head 0.822815 -1.68609 1.92839
rclavicle -1.98785e-015 5.96354e-015
rhumerus -18.1535 -42.1505 -0.368071
rradius 21.1786
rwrist 10.2827
rhand -17.1688 -51.4735
rfingers 7.12502
rthumb 9.07243 278.742
lclavicle -1.98785e-015 5.96354e-015
lhumerus 4.65151 16.9835 6.44864
lradius 21.2303
lwrist 6.55769
lhand -13.4069 -5.02795
lfingers 7.12502
lthumb 12.7009 24.5658
rfemur 13.3186 21.1362 7.53493
rtibia -5.39905
rfoot -40.0383 -29.931
rtoes 51.9143
lfemur 8.57163 -13.0915 -7.08272
ltibia -4.62474
lfoot -198.293 179.613
ltoes 43.2893
702
root 11.2582 18.4309 26.2764 387.156 -79.7101 -21.6467
lowerback -5.95034 0.440949 3.9337
upperback -3.25063 0.328511 -0.751955
thorax 0.010893 0.0834168 -2.96377
lowerneck -0.569698 -2.58506 -1.77667
upperneck 1.79754 -3.55386 5.21584
head 0.789221 -1.75816 1.89576
rclavicle -4.15957e-014 -2.42517e-014
rhumerus -18.1173 -42.0091 -0.359406
rradius 21.2336
rwrist 10.2537
rhand -17.0192 -51.0831
rfingers 7.12502
rthumb 9.2168 279.138
lclavicle -4.15957e-014 -2.42517e-014
lhumerus 4.63108 16.5294 6.3712
lradius 21.3687
lwrist 7.14688
lhand -13.4651 -4.92774
lfingers 7.12502
lthumb 12.6449 24.6695
rfemur 13.3469 20.9954 7.59017
rtibia -5.33818
rfoot -39.718 -29.9911
rtoes 51.4138
lfemur 8.66444 -13.149 -7.17854
ltibia -4.60728
lfoot -198.414 179.561
ltoes 43.6333
703
root 11.2442 18.4238 26.2577 386.351 -79.8134 -20.8174
lowerback -6.06313 0.391471 3.62152
upperback -3.23385 0.273479 -0.7302
thorax 0.086137 0.0614173 -2.76854
lowerneck -0.558067 -2.61981 -1.81018
upperneck 1.73589 -3.59608 5.18519
head 0.769528 -1.78032 1.89165
rclavicle -9.21864e-015 2.78299e-015
rhumerus -17.8532 -41.9516 -0.572411
rradius 21.2249
rwrist 10.2422
rhand -17.1766 -51.0442
rfingers 7.12502
rthumb 9.06493 279.171
lclavicle -9.21864e-015 2.78299e-015
lhumerus 4.44653 15.8616 6.1207
lradius 21.5325
lwrist 8.0841
lhand -13.5846 -4.75597
lfingers 7.12502
lthumb 12.5296 24.8484
rfemur 13.5064 21.2411 7.67335
rtibia -5.31423
rfoot -40.1993 -29.7837
rtoes 51.0757
lfemur 8.7087 -13.3311 -7.38308
ltibia -4.57416
lfoot -198.6 179.726
ltoes 43.1097
704
root 11.2256 18.4137 26.2439 386.465 -79.9567 -20.9158
lowerback -6.21287 0.353057 3.46526
upperback -3.22887 0.223462 -0.663684
thorax 0.170506 0.0399282 -2.61477
lowerneck -0.549132 -2.59124 -1.87322
upperneck 1.74113 -3.55908 5.24873
head 0.771109 -1.76198 1.92395
rclavicle -1.39646e-014 1.11319e-014
rhumerus -17.5011 -41.2067 -0.975871
rradius 21.3018
rwrist 9.55639
rhand -17.292 -51.3133
rfingers 7.12502
rthumb 8.95358 278.897
lclavicle -1.39646e-014 1.11319e-014
lhumerus 4.28079 15.9482 6.02801
lradius 21.5557
lwrist 8.09149
lhand -13.4621 -4.73047
lfingers 7.12502
lthumb 12.6477 24.8666
rfemur 13.5255 21.0396 7.7543
rtibia -5.22015
rfoot -39.7361 -30.1598
rtoes 50.1918
lfemur 8.81267 -13.1788 -7.3747
ltibia -4.59511
lfoot -198.631 179.569
ltoes 43.3262
